# Blender v2.79 (sub 0) OBJ File: ''
# www.blender.org
v 0.000000 -1.000000 0.000000
v 0.723600 -0.447215 0.525720
v -0.276385 -0.447215 0.850640
v -0.894425 -0.447215 0.000000
v -0.276385 -0.447215 -0.850640
v 0.723600 -0.447215 -0.525720
v 0.276385 0.447215 0.850640
v -0.723600 0.447215 0.525720
v -0.723600 0.447215 -0.525720
v 0.276385 0.447215 -0.850640
v 0.894425 0.447215 0.000000
v 0.000000 1.000000 0.000000
vt 0.247468 0.285745
vt 0.165002 0.142908
vt 0.329934 0.142909
vt 0.082535 0.285747
vt 0.165002 0.428581
vt 0.412402 0.285745
vt 0.329934 0.428581
vt 0.000071 0.142909
vt 0.082536 0.000070
vt 0.247470 0.000070
vt 0.494870 0.142908
vt 0.412404 0.857093
vt 0.329936 0.999930
vt 0.247469 0.857092
vt 0.247469 0.571419
vt 0.412402 0.000072
vt 0.165001 0.999926
vt 0.329936 0.714257
vt 0.082535 0.571419
vt 0.000070 0.714257
vt 0.165003 0.714255
vt 0.082538 0.857092
vn 0.0000 -1.0000 0.0000
vn 0.7236 -0.4472 0.5257
vn -0.2764 -0.4472 0.8506
vn 0.7236 -0.4472 -0.5257
vn -0.8944 -0.4472 0.0000
vn -0.2764 -0.4472 -0.8506
vn 0.8944 0.4472 0.0000
vn 0.2764 0.4472 0.8506
vn -0.7236 0.4472 0.5257
vn -0.7236 0.4472 -0.5257
vn 0.2764 0.4472 -0.8506
vn 0.0000 1.0000 0.0000
s 1
f 1/1/1 2/2/2 3/3/3
f 2/4/2 1/1/1 6/5/4
f 1/1/1 3/3/3 4/6/5
f 1/1/1 4/6/5 5/7/6
f 1/1/1 5/7/6 6/5/4
f 2/2/2 6/8/4 11/9/7
f 3/3/3 2/2/2 7/10/8
f 4/6/5 3/3/3 8/11/9
f 5/12/6 4/13/5 9/14/10
f 6/5/4 5/7/6 10/15/11
f 2/2/2 11/9/7 7/10/8
f 3/3/3 7/16/8 8/11/9
f 4/13/5 8/17/9 9/14/10
f 5/12/6 9/14/10 10/18/11
f 6/5/4 10/15/11 11/19/7
f 7/20/8 11/19/7 12/21/12
f 8/22/9 7/20/8 12/21/12
f 9/14/10 8/22/9 12/21/12
f 10/18/11 9/14/10 12/21/12
f 11/19/7 10/15/11 12/21/12
